<svg xmlns="http://www.w3.org/2000/svg" viewBox="0 0 32 32" fill="none">
  <rect width="32" height="32" rx="8" fill="#050505"/>
  <path d="M8 10C8 8.895 8.895 8 10 8H16C19.314 8 22 10.686 22 14C22 15.657 21.343 17.157 20.243 18.243C21.343 19.329 22 20.829 22 22.5C22 25.537 19.537 28 16.5 28H10C8.895 28 8 27.105 8 26V10Z" fill="#10b981"/>
  <path d="M11 11H16C17.657 11 19 12.343 19 14C19 15.657 17.657 17 16 17H11V11Z" fill="#050505"/>
  <path d="M11 19H16.5C18.157 19 19.5 20.343 19.5 22C19.5 23.657 18.157 25 16.5 25H11V19Z" fill="#050505"/>
</svg>
